<?xml version="1.0" ?><!-- Uploaded to: SVG Repo, www.svgrepo.com, Generator: SVG Repo Mixer Tools -->
<svg width="800px" height="800px" viewBox="0 0 1000 1000" id="Layer_2" version="1.1" xml:space="preserve" xmlns="http://www.w3.org/2000/svg" xmlns:xlink="http://www.w3.org/1999/xlink"><path d="M676.533,458.292c-93.58-14.901-198.501-24.53-267.3-24.53c-67.071,0-131.978,8.407-182.764,23.672  c-48.768,14.659-70.597,31.941-70.597,42.567c0,10.625,21.829,27.908,70.597,42.567c50.786,15.265,115.692,23.672,182.764,23.672  c69.655,0,176.991-8.509,267.092-21.173c47.604-6.691,88.175-14.213,117.326-21.751c39.49-10.213,47.859-17.793,49.498-19.881  c-1.601-2.133-9.843-9.935-49.297-21.011C764.51,474.186,723.94,465.841,676.533,458.292z" style="fill:#231F20;"/><path d="M221.511,440.938c52.351-15.735,119.018-24.401,187.723-24.401c70.862,0,182.198,10.4,277.047,25.878  c49.021,8,90.302,16.815,119.378,25.493c14.173,4.229,25.347,8.34,33.824,12.516c-58.064-63.893-303.256-129.086-430.249-129.086  c-127.503,0-233.712,60.382-257.144,123.254C169.588,458.609,200.418,447.278,221.511,440.938z" style="fill:#231F20;"/><path d="M847.912,521.537c-8.947,5.685-22.83,11.015-42.416,16.436c-1.155,0.324-2.341,0.639-3.536,0.963  c-4.644,1.242-9.588,2.483-14.804,3.722c-0.769,0.182-1.544,0.364-2.324,0.547c-2.998,0.7-6.076,1.398-9.248,2.094  c-24.998,5.481-55.315,10.832-89.464,15.767c-92.685,13.395-203.954,22.404-276.89,22.404c-68.701,0-135.365-8.674-187.722-24.4  c-21.087-6.343-51.921-17.682-69.421-33.662c17.636,47.31,82.135,93.204,167.305,113.029v70.789  c0,10.531,10.085,18.13,20.208,15.226l59.597-17.099c34.593-9.925,71.278-9.925,105.871,0l59.597,17.099  c10.123,2.904,20.208-4.694,20.208-15.226v-80.875c38.314-7.561,76.839-16.929,112.241-27.584  c41.575-12.514,78.845-26.802,106.406-42.001C825.215,546.788,840.89,534.244,847.912,521.537z M370.647,671.024h-19.21  c-4.757,0-8.613-3.856-8.613-8.613c0-4.757,3.857-8.613,8.613-8.613h19.21c4.757,0,8.612,3.856,8.612,8.613  C379.26,667.168,375.404,671.024,370.647,671.024z M431.374,671.024h-19.21c-4.757,0-8.612-3.856-8.612-8.613  c0-4.757,3.855-8.613,8.612-8.613h19.21c4.757,0,8.613,3.856,8.613,8.613C439.987,667.168,436.131,671.024,431.374,671.024z   M492.101,671.024h-19.21c-4.756,0-8.612-3.856-8.612-8.613c0-4.757,3.857-8.613,8.612-8.613h19.21c4.757,0,8.613,3.856,8.613,8.613  C500.714,667.168,496.857,671.024,492.101,671.024z M552.828,671.024h-19.21c-4.757,0-8.613-3.856-8.613-8.613  c0-4.757,3.856-8.613,8.613-8.613h19.21c4.757,0,8.612,3.856,8.612,8.613C561.44,667.168,557.585,671.024,552.828,671.024z" style="fill:#231F20;"/><path d="M788.118,263.23l-41.322,27.105c-7.275,4.772-12.858,11.734-15.938,19.87l-30.095,79.401  c33.833,11.369,72.004,26.214,103.386,43.672l13.294-169.553c0.011-0.182,0.021-0.354,0.021-0.537c0-3.668-2.979-6.718-6.718-6.718  C802.71,256.472,794.846,258.823,788.118,263.23z" style="fill:#231F20;"/><path d="M810.745,743.528c3.738,0,6.718-3.05,6.718-6.718c0-0.173-0.01-0.345-0.021-0.527l-12.453-158.782  c-26.416,13.73-60.595,26.974-101.755,39.417l27.623,72.875c3.08,8.147,8.663,15.099,15.938,19.871l41.322,27.105  C794.846,741.177,802.71,743.528,810.745,743.528z" style="fill:#231F20;"/></svg>